<mxfile host="Electron" agent="Mozilla/5.0 (Windows NT 10.0; Win64; x64) AppleWebKit/537.36 (KHTML, like Gecko) draw.io/26.0.16 Chrome/132.0.6834.196 Electron/34.2.0 Safari/537.36" version="26.0.16">
  <diagram name="페이지-1" id="q0OV6VffrLx8PqODL1LJ">
    <mxGraphModel dx="792" dy="1180" grid="1" gridSize="10" guides="1" tooltips="1" connect="1" arrows="1" fold="1" page="1" pageScale="1" pageWidth="1169" pageHeight="827" math="0" shadow="0">
      <root>
        <mxCell id="0" />
        <mxCell id="1" parent="0" />
        <mxCell id="sZzqLJQ79nvyeXBCRrQt-12" value="BGA_Controler" style="swimlane;whiteSpace=wrap;html=1;" parent="1" vertex="1">
          <mxGeometry x="160" y="90" width="480" height="440" as="geometry" />
        </mxCell>
        <mxCell id="sZzqLJQ79nvyeXBCRrQt-8" value="" style="edgeStyle=orthogonalEdgeStyle;rounded=0;orthogonalLoop=1;jettySize=auto;html=1;" parent="sZzqLJQ79nvyeXBCRrQt-12" source="sZzqLJQ79nvyeXBCRrQt-3" target="sZzqLJQ79nvyeXBCRrQt-4" edge="1">
          <mxGeometry relative="1" as="geometry" />
        </mxCell>
        <mxCell id="sZzqLJQ79nvyeXBCRrQt-4" value="Display Data" style="rounded=0;whiteSpace=wrap;html=1;" parent="sZzqLJQ79nvyeXBCRrQt-12" vertex="1">
          <mxGeometry x="295" y="260" width="120" height="170" as="geometry" />
        </mxCell>
        <mxCell id="5QOqZc-U88MytWNbLLnS-5" value="VGA_Decoder" style="swimlane;whiteSpace=wrap;html=1;" vertex="1" parent="sZzqLJQ79nvyeXBCRrQt-12">
          <mxGeometry x="10" y="30" width="410" height="210" as="geometry" />
        </mxCell>
        <mxCell id="sZzqLJQ79nvyeXBCRrQt-1" value="CLK_Divider" style="rounded=0;whiteSpace=wrap;html=1;" parent="5QOqZc-U88MytWNbLLnS-5" vertex="1">
          <mxGeometry x="5" y="30" width="120" height="170" as="geometry" />
        </mxCell>
        <mxCell id="sZzqLJQ79nvyeXBCRrQt-2" value="Pixel Counter" style="rounded=0;whiteSpace=wrap;html=1;" parent="5QOqZc-U88MytWNbLLnS-5" vertex="1">
          <mxGeometry x="145" y="30" width="120" height="170" as="geometry" />
        </mxCell>
        <mxCell id="sZzqLJQ79nvyeXBCRrQt-3" value="pixel decoder" style="rounded=0;whiteSpace=wrap;html=1;" parent="5QOqZc-U88MytWNbLLnS-5" vertex="1">
          <mxGeometry x="285" y="30" width="120" height="170" as="geometry" />
        </mxCell>
        <mxCell id="sZzqLJQ79nvyeXBCRrQt-6" style="edgeStyle=orthogonalEdgeStyle;rounded=0;orthogonalLoop=1;jettySize=auto;html=1;entryX=0;entryY=0.5;entryDx=0;entryDy=0;" parent="5QOqZc-U88MytWNbLLnS-5" source="sZzqLJQ79nvyeXBCRrQt-1" target="sZzqLJQ79nvyeXBCRrQt-2" edge="1">
          <mxGeometry relative="1" as="geometry" />
        </mxCell>
        <mxCell id="5QOqZc-U88MytWNbLLnS-3" value="" style="edgeStyle=orthogonalEdgeStyle;rounded=0;orthogonalLoop=1;jettySize=auto;html=1;" edge="1" parent="5QOqZc-U88MytWNbLLnS-5" source="sZzqLJQ79nvyeXBCRrQt-2" target="sZzqLJQ79nvyeXBCRrQt-3">
          <mxGeometry relative="1" as="geometry" />
        </mxCell>
        <mxCell id="sZzqLJQ79nvyeXBCRrQt-14" style="edgeStyle=orthogonalEdgeStyle;rounded=0;orthogonalLoop=1;jettySize=auto;html=1;entryX=0;entryY=0.5;entryDx=0;entryDy=0;" parent="1" source="sZzqLJQ79nvyeXBCRrQt-13" target="sZzqLJQ79nvyeXBCRrQt-4" edge="1">
          <mxGeometry relative="1" as="geometry" />
        </mxCell>
        <mxCell id="sZzqLJQ79nvyeXBCRrQt-13" value="RGB_sw" style="text;html=1;align=center;verticalAlign=middle;whiteSpace=wrap;rounded=0;" parent="1" vertex="1">
          <mxGeometry x="110" y="420" width="50" height="30" as="geometry" />
        </mxCell>
        <mxCell id="sZzqLJQ79nvyeXBCRrQt-5" value="VGA_Out" style="rounded=0;whiteSpace=wrap;html=1;" parent="1" vertex="1">
          <mxGeometry x="650" y="210" width="120" height="50" as="geometry" />
        </mxCell>
        <mxCell id="sZzqLJQ79nvyeXBCRrQt-10" style="edgeStyle=orthogonalEdgeStyle;rounded=0;orthogonalLoop=1;jettySize=auto;html=1;entryX=0.5;entryY=1;entryDx=0;entryDy=0;" parent="1" source="sZzqLJQ79nvyeXBCRrQt-4" target="sZzqLJQ79nvyeXBCRrQt-5" edge="1">
          <mxGeometry relative="1" as="geometry" />
        </mxCell>
        <mxCell id="sZzqLJQ79nvyeXBCRrQt-15" value="RGB4/4/4" style="edgeLabel;html=1;align=center;verticalAlign=middle;resizable=0;points=[];" parent="sZzqLJQ79nvyeXBCRrQt-10" vertex="1" connectable="0">
          <mxGeometry x="-0.8847" y="-1" relative="1" as="geometry">
            <mxPoint x="68" y="-1" as="offset" />
          </mxGeometry>
        </mxCell>
        <mxCell id="sZzqLJQ79nvyeXBCRrQt-9" value="" style="edgeStyle=orthogonalEdgeStyle;rounded=0;orthogonalLoop=1;jettySize=auto;html=1;" parent="1" source="sZzqLJQ79nvyeXBCRrQt-3" target="sZzqLJQ79nvyeXBCRrQt-5" edge="1">
          <mxGeometry relative="1" as="geometry" />
        </mxCell>
        <mxCell id="sZzqLJQ79nvyeXBCRrQt-17" value="sync" style="edgeLabel;html=1;align=center;verticalAlign=middle;resizable=0;points=[];" parent="sZzqLJQ79nvyeXBCRrQt-9" vertex="1" connectable="0">
          <mxGeometry x="0.5556" y="-1" relative="1" as="geometry">
            <mxPoint x="-19" y="-1" as="offset" />
          </mxGeometry>
        </mxCell>
      </root>
    </mxGraphModel>
  </diagram>
</mxfile>
